<svg width="25" height="24" viewBox="0 0 25 24" fill="none" xmlns="http://www.w3.org/2000/svg">
  <path d="M10.0248 4.83679C11.0736 2.22213 11.598 0.914795 12.4998 0.914795C13.4016 0.914795 13.926 2.22213 14.9748 4.83679L15.0236 4.95855C15.6161 6.4357 15.9124 7.17428 16.5162 7.6232C17.12 8.07212 17.9126 8.1431 19.4978 8.28507L19.7844 8.31074C22.3788 8.54309 23.676 8.65927 23.9536 9.48458C24.2312 10.3099 23.2678 11.1863 21.3411 12.9393L20.6981 13.5243C19.7227 14.4117 19.235 14.8553 19.0077 15.4368C18.9653 15.5453 18.9301 15.6564 18.9022 15.7695C18.7528 16.3757 18.8956 17.0194 19.1812 18.3067L19.2701 18.7074C19.795 21.0731 20.0575 22.256 19.5992 22.7663C19.428 22.9569 19.2055 23.0942 18.9582 23.1616C18.2966 23.3422 17.3573 22.5768 15.4787 21.046C14.2452 20.0408 13.6284 19.5382 12.9203 19.4252C12.6417 19.3807 12.3579 19.3807 12.0793 19.4252C11.3712 19.5382 10.7544 20.0408 9.52086 21.046C7.64226 22.5768 6.70295 23.3422 6.04135 23.1616C5.79413 23.0942 5.57158 22.9569 5.40035 22.7663C4.94211 22.256 5.20456 21.0731 5.72946 18.7074L5.81836 18.3067C6.10397 17.0194 6.24678 16.3757 6.09737 15.7695C6.0695 15.6564 6.03425 15.5453 5.99185 15.4368C5.76455 14.8553 5.27688 14.4117 4.30154 13.5243L3.6585 12.9393C1.73178 11.1863 0.768413 10.3099 1.04598 9.48458C1.32356 8.65927 2.62076 8.54309 5.21518 8.31074L5.50177 8.28507C7.08699 8.1431 7.8796 8.07212 8.4834 7.6232C9.0872 7.17428 9.38346 6.4357 9.97598 4.95855L10.0248 4.83679Z" stroke="#232323" />
</svg>